<?xml version="1.0" standalone="no"?>
<!DOCTYPE svg PUBLIC "-//W3C//DTD SVG 20010904//EN"
 "http://www.w3.org/TR/2001/REC-SVG-20010904/DTD/svg10.dtd">
<svg version="1.0" xmlns="http://www.w3.org/2000/svg"
 width="96.000000pt" height="96.000000pt" viewBox="0 0 96.000000 96.000000"
 preserveAspectRatio="xMidYMid meet">
<metadata>
Created by potrace 1.16, written by Peter Selinger 2001-2019
</metadata>
<g transform="translate(0.000000,96.000000) scale(0.100000,-0.100000)"
fill="#000000" stroke="none">
<path d="M375 916 c-199 -50 -335 -230 -335 -446 0 -157 81 -308 208 -389 115
-73 276 -82 397 -22 172 85 275 284 246 477 -29 197 -168 350 -350 384 -67 13
-103 12 -166 -4z m233 -101 c203 -91 276 -367 149 -557 -18 -27 -34 -47 -37
-47 -16 4 -121 129 -115 138 3 6 19 11 35 11 25 0 29 -4 35 -40 6 -38 9 -40
42 -40 33 0 34 2 29 27 -12 53 -66 346 -66 354 0 5 -18 9 -40 9 -22 0 -40 -1
-40 -3 0 -2 -11 -61 -25 -132 -14 -72 -25 -132 -25 -134 0 -3 -13 8 -29 23
l-29 28 19 86 c10 48 21 97 24 110 5 19 2 22 -29 22 l-34 0 -12 -80 c-7 -44
-16 -80 -20 -80 -20 0 -39 42 -46 98 l-7 62 -33 0 c-26 0 -34 -4 -34 -17 0
-12 -16 -2 -52 35 l-53 52 30 25 c105 88 238 106 363 50z m-388 -342 l0 -193
35 0 34 0 3 158 3 157 26 -40 c19 -28 33 -74 49 -157 l23 -118 33 0 c32 0 33
2 44 55 l11 55 27 -32 c16 -19 25 -41 24 -55 -3 -20 1 -23 26 -23 24 0 40 -11
75 -52 25 -29 43 -57 40 -61 -3 -5 -33 -22 -67 -38 -50 -24 -74 -29 -133 -29
-103 0 -173 28 -243 99 -123 123 -150 286 -75 448 25 55 26 56 45 38 19 -17
20 -31 20 -212z"/>
</g>
</svg>
